<?xml version="1.0" encoding="UTF-8"?>
<svg width="512" height="512" viewBox="0 0 512 512" fill="none" xmlns="http://www.w3.org/2000/svg">
  <rect width="512" height="512" fill="#1DB954"/>
  <path d="M256 128C325.647 128 384 186.353 384 256C384 325.647 325.647 384 256 384C186.353 384 128 325.647 128 256C128 186.353 186.353 128 256 128ZM256 160C203.608 160 160 203.608 160 256C160 308.392 203.608 352 256 352C308.392 352 352 308.392 352 256C352 203.608 308.392 160 256 160ZM256 192C290.899 192 320 221.101 320 256C320 290.899 290.899 320 256 320C221.101 320 192 290.899 192 256C192 221.101 221.101 192 256 192Z" fill="white"/>
</svg> 